<svg xmlns="http://www.w3.org/2000/svg" width="433" height="100" viewBox="0 0 433 100" fill="none"><path d="M37.769 65.8063H32.3518C29.3268 65.8063 26.7643 65.0546 24.6673 63.5493C22.5672 62.0455 21.5203 60.2435 21.5203 58.1438V19.4159H0V58.1438C0 62.4118 2.09853 66.0523 6.29457 69.06C10.4906 72.0701 15.5667 73.5729 21.5203 73.5729H37.769V65.8063ZM61.4694 31.8005C65.6638 28.7928 70.7389 27.2875 76.6946 27.2875H98.2134C101.141 27.2875 103.652 28.0402 105.752 29.5451C107.849 31.0493 108.899 32.8504 108.899 34.9501V65.8063C108.899 70.1446 106.799 73.8173 102.604 76.8275C98.4062 79.8351 93.3312 81.339 87.3796 81.339H44.3422V89H98.2134C107.091 89 114.681 86.7445 120.976 82.2305C127.272 77.719 130.418 72.2443 130.418 65.8063V34.9501C130.418 30.682 128.319 27.043 124.123 24.0344C119.927 21.0268 114.851 19.5209 108.899 19.5209H65.8609C56.9789 19.5209 49.3928 21.778 43.0982 26.2904C36.8037 30.8039 33.6551 36.2782 33.6551 42.7162C33.6551 49.084 36.8037 54.5238 43.0982 59.0369C49.3928 63.5493 56.9789 65.8063 65.8609 65.8063H92.7962V58.1438H76.6946C70.7389 58.1438 65.6638 56.6399 61.4694 53.6313C57.2713 50.6236 55.1738 46.9842 55.1738 42.7162C55.1738 38.4495 57.2713 34.8096 61.4694 31.8005ZM206.833 32.9549C212.102 36.7341 214.738 41.2825 214.738 46.5999V73.5729H236.257V46.5999C236.257 39.1142 232.572 32.7294 225.204 27.4448C217.835 22.1623 208.93 19.5209 198.488 19.5209H160.866C154.913 19.5209 149.814 21.0268 145.569 24.0344C141.323 27.043 139.201 30.682 139.201 34.9501V73.5729H160.866V34.9501C160.866 32.8504 161.891 31.0493 163.94 29.5451C165.99 28.0402 168.527 27.2875 171.553 27.2875H187.802C195.217 27.2875 201.563 29.1771 206.833 32.9549ZM282.807 65.8063H277.391C274.366 65.8063 271.803 65.0546 269.706 63.5493C267.607 62.0455 266.559 60.2435 266.559 58.1438V19.4159H245.04V58.1438C245.04 62.4118 247.137 66.0523 251.335 69.06C255.529 72.0701 260.605 73.5729 266.559 73.5729H282.807V65.8063ZM245.04 7.76698H266.559V-6.61897e-07H245.04V7.76698ZM339.313 65.8063H317.648C314.719 65.8063 312.206 65.0546 310.109 63.5493C308.009 62.0455 306.962 60.2435 306.962 58.1438V27.1819H339.313V19.4159H306.962V7.87152H285.296V58.1438C285.296 62.4118 287.419 66.0523 291.664 69.06C295.909 72.0701 301.007 73.5729 306.962 73.5729H339.313V65.8063ZM373.86 50.4837H411.48C417.433 50.4837 422.509 48.9789 426.707 45.9697C430.901 42.9621 433 39.3233 433 35.055C433 30.7173 430.926 27.0615 426.778 24.0866C422.629 21.1133 417.531 19.626 411.48 19.626H373.86C363.514 19.626 354.658 22.2508 347.29 27.4975C339.92 32.7453 336.237 39.1142 336.237 46.5999C336.237 54.0166 339.92 60.3664 347.29 65.6491C354.658 70.9326 363.514 73.5729 373.86 73.5729H422.313V65.9114H384.69C377.274 65.9114 370.931 64.0222 365.662 60.2435C360.392 56.4657 357.756 51.9184 357.756 46.5999C357.756 41.2123 360.392 36.647 365.662 32.9021C370.931 29.1597 377.274 27.2875 384.69 27.2875H400.795C403.723 27.2875 406.234 28.0402 408.334 29.5451C410.432 31.0493 411.48 32.8867 411.48 35.055C411.48 37.1543 410.432 38.9553 408.334 40.4592C406.234 41.9655 403.723 42.7162 400.795 42.7162H373.86V50.4837Z" fill="white"></path><path d="M0 8H22V-1.99723e-07H0V8Z" fill="white"></path><path d="M219.304 95H216.222V85.6956H214V83.7695H216.222V80H219.304V83.7695H222V85.6956H219.304V95Z" fill="white"></path><path d="M229 95V84.2892H231.021V85.2564H231.063C231.979 84.0576 233.459 84.0192 234 84V86.0685C233.666 86.0685 232.959 86.2031 232.438 86.4554C231.751 86.8027 231.167 87.6147 231.167 89.1413V95H229Z" fill="white"></path><path d="M248.499 85.7914C244.798 85.7914 243.006 87.8869 243.006 89.5284C243.006 91.4146 245.29 93.2085 248.471 93.2085C251.622 93.2085 254.051 91.5286 254.051 89.5284C254.051 87.3016 251.593 85.7914 248.499 85.7914ZM253.993 94.7364V93.1137H253.935C252.778 94.3974 250.668 95 248.499 95C243.093 95 240 92.3019 240 89.5471C240 86.9991 242.746 84 248.499 84C250.726 84 252.778 84.6026 253.935 85.754H253.993V84.2823H257V94.7364H253.993Z" fill="white"></path><path d="M270.027 95H268.027L262 84H265.042L269.014 91.8625H269.069L272.959 84H276L270.027 95Z" fill="white"></path><path d="M296.06 88.8493C295.92 87.3204 293.828 85.7914 291.001 85.7914C288.173 85.7914 286.082 87.3204 285.94 88.8493H296.06ZM285.94 90.3584C286.676 92.3784 289.106 93.2085 291.085 93.2085C293.262 93.2085 294.845 92.3587 295.552 91.4521H298.492C296.993 94.1511 293.404 95 290.972 95C286.534 95 283 92.4534 283 89.4904C283 86.3589 286.619 84 291.029 84C295.269 84 298.972 86.3017 299 89.3581C299 89.6981 298.943 90.2257 298.915 90.3584H285.94Z" fill="white"></path><path d="M307 95H305V80H307V95Z" fill="white"></path><path d="M333.985 85.9301C330.647 85.9301 328.156 87.8013 328.156 89.9361C328.156 91.9684 330.584 93.9213 333.954 93.9213C338.082 93.9213 339.844 91.3999 339.844 89.9563C339.844 86.7841 335.927 85.9301 333.985 85.9301ZM343 94.0426C343 97.7429 339.631 100 333.894 100C329.977 100 327.003 98.5761 325.606 96.4417H329.128C329.614 96.8889 330.919 98.0673 333.924 98.0673C337.264 98.047 339.844 97.0112 339.844 94.083H339.783C339.206 94.6111 337.537 95.8516 333.985 95.8516C328.429 95.8516 325 92.6404 325 89.8957C325 87.3955 327.945 84 334.046 84C336.535 84 338.72 84.7513 339.844 85.6058V84.3041H343V94.0426Z" fill="white"></path><path d="M349 95V84.2892H352.234V85.2564H352.3C353.766 84.0576 356.133 84.0192 357 84V86.0685C356.466 86.0685 355.334 86.2031 354.5 86.4554C353.401 86.8027 352.466 87.6147 352.466 89.1413V95H349Z" fill="white"></path><path d="M369 85.7914C365.477 85.7914 363.13 87.6229 363.13 89.4904C363.13 91.3771 365.508 93.2085 369 93.2085C372.372 93.2085 374.869 91.4521 374.869 89.4721C374.869 87.6229 372.521 85.7914 369 85.7914ZM369 95C363.401 95 360 92.0759 360 89.4331C360 86.5841 363.822 84 369 84C374.056 84 378 86.4903 378 89.4721C378 92.0196 374.66 95 369 95Z" fill="white"></path><path d="M387.179 84V89.8102C387.179 92.4633 389.041 93.1613 391.394 93.1613C394.02 93.1613 395.824 92.0951 395.824 89.7525V84H399V94.7295H396.099V93.568H396.038C395.182 94.497 393.196 95 391.058 95C389.134 95 387.453 94.6125 386.231 93.9348C384.825 93.1613 384 91.9604 384 89.8102V84H387.179Z" fill="white"></path><path d="M414.41 85.8888C411.595 85.8888 409.633 87.7605 409.633 89.7888C409.633 92.0179 411.777 93.7091 414.486 93.7091C417.017 93.7091 419.315 92.1564 419.315 89.8289C419.315 87.8594 417.327 85.8888 414.41 85.8888ZM407 84.2976H409.453V85.9892H409.505C410.795 84.5562 412.758 84 414.59 84C419.444 84 422 87.0039 422 89.9485C422 92.734 419.289 95.598 414.771 95.598C411.777 95.598 410.278 94.4246 409.736 93.7288H409.684V99H407V84.2976Z" fill="white"></path></svg>